<svg xmlns="http://www.w3.org/2000/svg" xmlns:xlink="http://www.w3.org/1999/xlink" version="1.1" x="0px" y="0px" viewBox="0 0 1000 1000" style="enable-background:new 0 0 1000 1000;" xml:space="preserve" fill="#179299" stroke="#179299">
    <path d="M275.1860352,301.8490601c2.1298523-16.2831421-3.9517517-29.7293091-15.7981567-39.2091064   c-27.2902069-21.8383179-32.7930298-48.5253754-21.0035095-80.1822662   c0.1607513-0.4315948-0.2375793-1.0713654-0.3808289-1.6371613c-15.2028961,21.8875275-13.1498566,52.4343109,4.853775,73.0289001   c6.5336914,7.4739075,14.6551361,13.5320129,20.7091522,23.0342712   c-49.1857147,8.6348572-97.9568481,7.4689636-146.776123,5.3345642   c50.2898178,7.2980957,100.6329117,6.0757751,150.1628723,0.6762085c4.6407471,5.7492676,5.8384705,10.977478,4.8285828,17.0927124   c-6.6125793,4.6447449-14.5778809,3.7963562-21.9685669,4.1461792c-46.97995,2.2234802-93.999527,4.7127991-140.9835663,0.5029907   c-29.3335037-2.6282654-58.1404572-8.008667-84.8959351-21.1112061   c-15.2671432-7.476593-19.6770859-14.5186462-17.2609882-26.0222473   c2.8011489-13.3368225,13.8123169-22.5037231,28.4001236-23.1670074   c19.978344-0.9083557,39.9497986,1.6577148,59.9437561,0.2521515   c56.3956223-3.9645386,101.7233963-28.109787,134.8162231-74.2406158   c16.2954102-22.7154541,32.5253754-45.3571548,54.6663055-63.0405807   c83.9899902-67.0810699,202.8756409-46.2958527,259.3240356,45.2703171   c23.5886841,38.2638092,34.7306519,80.3586578,36.4946899,124.6018219   c4.331543,108.6362915-33.1782837,201.8486023-106.8781738,281.0644226   c-1.1217346,1.2058105-2.9002075,2.0621948-2.6793518,4.7647095c17.4421082,0.4525146,34.9317932,0.3617554,52.3869934,2.0113525   c67.3348389,6.3634644,130.1862183,26.7819824,189.2985229,59.2679443   c27.3431396,15.0267334,53.130127,32.4555664,78.0297852,51.1842041   c5.9654541,4.4869995,12.0111694,6.3885498,19.4536133,6.3915405   c55.1505127,0.0228271,105.7507324-13.2976685,148.8058472-49.5264282   c13.2662354-11.1629028,24.1571655-24.425415,34.9453125-40.276001   c1.0385742,16.6881714-1.0255737,31.0128784-4.8363647,45.1436157   c-11.9680176,44.3778076-37.8430786,80.3839111-68.6047974,113.3696289   c-11.5838013,12.4210815-24.1367798,23.8712769-37.8638306,35.3171387   c30.5245361,20.0726929,63.0372925,29.0335693,100.2647095,24.2970581   c-5.5431519,7.9863892-12.3720703,12.5621948-18.5564575,17.5783081   c-36.5617065,29.654541-77.7875977,48.9865723-124.8015747,54.9240112   c-4.3200073,0.5454102-6.8380737,2.8647461-9.3416748,5.8137817   c-11.7930298,13.8912964-23.6326294,27.7240601-36.8441162,40.3405151   c-15.8347778,15.1213989-34.194397,22.6876831-56.4087524,22.6207886   c-102.6047363-0.3091431-205.2111206-0.1052856-307.816864-0.0861206   c-71.441864,0.0133667-142.9532166-1.9343872-214.3056641,0.5977783   c-69.0965576,2.4520264-115.542366-29.1061401-148.425293-86.5716553   C7.7755461,753.40979,23.7254467,612.6453247,103.5981293,527.2434082   c39.408432-42.1363525,88.7616882-64.4257202,145.2346191-72.3397217   c23.0527802-3.2305603,46.2411652-4.0873413,69.4758148-3.3045349c6.4162903,0.216217,12.0686951-1.2099304,17.6142578-4.2966919   c23.4158325-13.0335083,43.0285339-29.776123,53.3244629-55.3132935   c11.7331543-29.1020508,3.1433411-51.4637146-25.2533875-64.5299683   c-24.6686401-11.3507996-51.3591309-16.2501831-77.5435791-22.6711121   C282.7924805,303.8911743,279.1604614,302.8889771,275.1860352,301.8490601z M761.3413696,712.2116699   c-45.8977661,2.4084473-91.0009766-0.4761963-135.9351807-10.6361084   c-45.2149658-10.2232666-87.6992798-27.6013184-129.9040833-46.4255371   c-63.3690491-28.263855-147.8933716-69.0385742-205.6873779-7.132019   c-20.1947632,21.6318359-28.6560669,51.5773315-23.519928,80.6402588   c6.0744324,34.3723145,28.6542358,62.1096191,54.0777893,84.7201538   c48.0046387,42.6931152,110.0917053,68.0706177,173.8248901,74.2346802   c31.6078186,3.0570679,63.6869812,1.4342651,94.7816467-5.0545044c9.4816284-1.9786377,87.4710693-23.1389771,83.7382812-33.692749   c-87.557251,3.1472778-167.9098816-32.097168-234.7555237-86.7427979   c67.8473816,12.5916748,122.1260071,13.1176147,151.8423157,1.494873   c-31.8086548-5.3925171-70.382019-9.3425903-97.9202271-27.6728516   C583.5567627,747.5811157,673.3739014,739.3492432,761.3413696,712.2116699z M361.8910828,169.4584045   c0.9898376-17.8608704-10.1884155-34.89505-29.1948547-35.3014984   c-18.8728333-0.4036102-32.7698669,16.5944519-33.0966492,34.6373901   c4.3141479,0.7613373,8.6228638,0.7352295,13.3542786-0.1421204c4.7150574-20.5852814,27.6916504-18.2158051,32.348877,0.8062286   C351.0084534,169.4584045,356.1828918,169.4584045,361.8910828,169.4584045z"/>
</svg>
